<svg xmlns="http://www.w3.org/2000/svg" viewBox="0 0 128 128"><defs><linearGradient id="skin" x2=".8" y2="1"><stop stop-color="#a8bf91"/><stop offset="1" stop-color="#475e4c"/></linearGradient></defs><g stroke="#263329" stroke-width="3" stroke-linejoin="round" stroke-linecap="round"><path d="M13 116 24 48 49 28h38l23 22 6 66-32-8-22 10-21-10Z" fill="url(#skin)"/><path d="M11 58 6 28l31 18L57 8l13 34L96 10l-2 31 30-13-9 32" fill="#657f5d"/><path d="M29 64q34-14 72 0l-9 35-59 3Z" fill="#4c674f"/><path d="M43 67h16m15 0h16" stroke="#e0de89" stroke-width="8"/><path d="M50 92q13 10 28 0" fill="none" stroke="#9db887" stroke-width="6"/><path d="m11 103 22-18m84 18-23-18" fill="none" stroke="#79916b" stroke-width="9"/></g></svg>